<svg width="162" height="144" viewBox="0 0 162 144" fill="none" xmlns="http://www.w3.org/2000/svg">
<path d="M3.10309 45.7209C3.03019 45.8507 2.98719 45.9951 2.97724 46.1437L1.00224 75.6174C0.979554 75.9559 1.13005 76.2828 1.40197 76.4857L10.8385 83.527L8.90254 110.613C8.87091 111.056 9.13472 111.466 9.55045 111.621L39.0752 122.636L70.5852 142.842C70.857 143.016 71.1963 143.048 71.4962 142.929L98.9501 131.954L124.414 132.868C124.631 132.876 124.845 132.812 125.023 132.688L160.573 107.819C160.794 107.665 160.943 107.428 160.987 107.162C161.03 106.896 160.965 106.624 160.805 106.407L139.311 77.2461L141.244 59.2119C141.265 59.0229 141.231 58.8321 141.146 58.6618L129.296 34.7144C129.172 34.4622 128.946 34.2743 128.676 34.1967L103.362 26.9321L97.641 18.0379C97.5219 17.8527 97.3449 17.712 97.1377 17.6377L71.6565 8.49669L63.9071 1.26872C63.6847 1.06133 63.3801 0.966371 63.0793 1.01067L25.5543 6.53699C25.2479 6.58211 24.9797 6.76663 24.8281 7.03665L3.10309 45.7209Z" fill="#A8BECF" stroke="#044473" stroke-width="2" stroke-linejoin="round"/>
<path d="M15.8867 53.6365L32.4273 58.3569L65.4469 72.1152" stroke="#B5CADB" stroke-width="2" stroke-linecap="round" stroke-linejoin="round"/>
<path d="M116.55 88.579L67.175 92.2632L71.125 70.1579L106.675 73.8421L118.525 57.2632L132.35 64.6316L138.275 77.5263L116.55 88.579Z" fill="#93AEC2"/>
<path d="M75.075 74.8207L102.663 76.6628" stroke="#A6C0D3" stroke-width="2" stroke-linecap="round" stroke-linejoin="round"/>
<path d="M3.975 46.2105L17.8 68.3158L39.525 81.2105L67.175 92.2631L116.55 88.5789L138.275 77.5263L160 107L124.45 131.868L98.775 130.947L71.125 142L39.525 121.737L9.9 110.684L11.875 83.0526L2 75.6842L3.975 46.2105Z" fill="#88A1B5"/>
<path d="M19.775 73.8421L39.525 85.8158L62.2375 95.0263" stroke="#99AFC0" stroke-width="2" stroke-linecap="round" stroke-linejoin="round"/>
<path d="M45.45 106.079L9.9 110.684L39.525 121.737L73.1 130.947L94.825 110.684L71.125 121.737L45.45 106.079Z" fill="#6F899E"/>
<path d="M63.225 2L71.125 9.36842L96.8 18.5789L88.9 36.0789L110.625 42.5263L118.525 57.2632L106.675 73.8421L71.125 70.1579L31.625 53.5789L3.975 46.2105L25.7 7.52632L63.225 2Z" fill="#D4E1EB"/>
<path d="M63.225 2L71.125 18.5789L79.025 25.9474L77.05 39.7632L102.725 44.3684L104.7 57.2632L73.1 59.1053L53.35 51.7368L33.6 38.8421L3.975 46.2105L25.7 7.52632L44.4625 4.76316L63.225 2Z" fill="#DCECF9"/>
<path d="M25.7 7.52631L33.6 38.8421L3.975 46.2105L25.7 7.52631Z" fill="#E9F5FF"/>
<path d="M94.825 31.4737L96.8 18.5789L102.725 27.7894L128.4 35.1579L140.25 59.1052L138.275 77.5263L132.35 64.6315L118.525 57.2631L110.625 42.5263L94.825 31.4737Z" fill="#6F899E"/>
<path d="M138.275 77.5263L124.45 121.737L160 107L138.275 77.5263Z" fill="#6F899E"/>
<path d="M98.775 130.947L71.125 142L39.525 121.737L73.1 130.947L94.825 110.684L124.45 121.967L160 107L124.45 131.868L98.775 130.947Z" fill="#456B89"/>
<path d="M17.8 68.3158L2 75.6842L11.875 83.0526L17.8 68.3158Z" fill="#456B89"/>
<path d="M132.35 64.6316L140.25 59.1053L138.275 77.5263L132.35 64.6316Z" fill="#456B89"/>
<path d="M102.725 27.7894L96.8 18.5789L94.825 31.4737L102.725 27.7894Z" fill="#456B89"/>
<path d="M23.725 16.7368L27.675 35.1579" stroke="white" stroke-width="2" stroke-linecap="round" stroke-linejoin="round"/>
<path d="M30.6375 10.2895L37.55 37L56.3125 48.9737L73.1 55.4211" stroke="#F1F9FF" stroke-width="2" stroke-linecap="round" stroke-linejoin="round"/>
<ellipse cx="71.6805" cy="100.035" rx="2.16016" ry="2.0148" fill="#7291A9"/>
<ellipse cx="91.5539" cy="104.697" rx="2.16016" ry="2.0148" fill="#7291A9"/>
<ellipse cx="101.923" cy="102.049" rx="2.16016" ry="2.0148" fill="#7291A9"/>
<ellipse cx="75.075" cy="114.34" rx="2.16016" ry="2.0148" fill="#7291A9"/>
<ellipse cx="106.12" cy="110.224" rx="2.16016" ry="2.0148" fill="#7291A9"/>
<ellipse cx="82.3887" cy="96.7245" rx="1.38867" ry="1.29523" fill="#7291A9"/>
<ellipse cx="94.825" cy="94.4219" rx="1.38867" ry="1.29523" fill="#7291A9"/>
<ellipse cx="86.8016" cy="101.258" rx="0.848633" ry="0.79153" fill="#7291A9"/>
<ellipse cx="95.6736" cy="100.423" rx="0.848633" ry="0.79153" fill="#7291A9"/>
<ellipse cx="85.9529" cy="109.432" rx="0.848633" ry="0.79153" fill="#7291A9"/>
<ellipse cx="78.0838" cy="100.035" rx="0.848633" ry="0.79153" fill="#7291A9"/>
<ellipse cx="116.149" cy="111.519" rx="1.38867" ry="1.29523" fill="#7291A9"/>
<ellipse cx="109.668" cy="104.064" rx="1.38867" ry="1.29523" fill="#7291A9"/>
<ellipse cx="98.7441" cy="107.086" rx="1.38867" ry="1.29523" fill="#7291A9"/>
<ellipse cx="73.0691" cy="106.655" rx="1.38867" ry="1.29523" fill="#7291A9"/>
<ellipse cx="62.2375" cy="100.927" rx="1.38867" ry="1.29523" fill="#7291A9"/>
<ellipse cx="101.923" cy="95.4005" rx="1.38867" ry="1.29523" fill="#7291A9"/>
<ellipse cx="67.5762" cy="112.325" rx="1.38867" ry="1.29523" fill="#7291A9"/>
<ellipse cx="81.0617" cy="105.791" rx="2.59219" ry="2.41776" fill="#7291A9"/>
<ellipse cx="1.29999" cy="1.69182" rx="1.29999" ry="1.69182" transform="matrix(0.237159 -0.971471 0.978184 0.207742 45.3075 13.5896)" fill="#F1F9FF"/>
<ellipse cx="0.852512" cy="1.10946" rx="0.852512" ry="1.10946" transform="matrix(0.237159 -0.971471 0.978184 0.207742 51.252 16.7175)" fill="#F1F9FF"/>
<ellipse cx="1.15898" cy="1.50831" rx="1.15898" ry="1.50831" transform="matrix(0.237159 -0.971471 0.978184 0.207742 46.8664 25.4562)" fill="#F1F9FF"/>
<ellipse cx="1.15898" cy="1.50831" rx="1.15898" ry="1.50831" transform="matrix(0.237159 -0.971471 0.978184 0.207742 46.721 20.5294)" fill="#F1F9FF"/>
<ellipse cx="1.15898" cy="1.50831" rx="1.15898" ry="1.50831" transform="matrix(0.237159 -0.971471 0.978184 0.207742 54.1719 27.6811)" fill="#F1F9FF"/>
<ellipse cx="0.852512" cy="1.10946" rx="0.852512" ry="1.10946" transform="matrix(0.237159 -0.971471 0.978184 0.207742 38.8466 15.4879)" fill="#F1F9FF"/>
<ellipse cx="0.852512" cy="1.10946" rx="0.852512" ry="1.10946" transform="matrix(0.237159 -0.971471 0.978184 0.207742 39.7297 9.44354)" fill="#F1F9FF"/>
<ellipse cx="0.852512" cy="1.10946" rx="0.852512" ry="1.10946" transform="matrix(0.237159 -0.971471 0.978184 0.207742 51.3598 11.6616)" fill="#F1F9FF"/>
<ellipse cx="0.852512" cy="1.10946" rx="0.852512" ry="1.10946" transform="matrix(0.237159 -0.971471 0.978184 0.207742 63.0061 13.0526)" fill="#F1F9FF"/>
<ellipse cx="0.852512" cy="1.10946" rx="0.852512" ry="1.10946" transform="matrix(0.237159 -0.971471 0.978184 0.207742 58.6752 19.7168)" fill="#F1F9FF"/>
<ellipse cx="0.852512" cy="1.10946" rx="0.852512" ry="1.10946" transform="matrix(0.237159 -0.971471 0.978184 0.207742 46.0419 17.0827)" fill="#F1F9FF"/>
<ellipse cx="0.852512" cy="1.10946" rx="0.852512" ry="1.10946" transform="matrix(0.237159 -0.971471 0.978184 0.207742 43.137 26.4075)" fill="#F1F9FF"/>
<ellipse cx="0.852512" cy="1.10946" rx="0.852512" ry="1.10946" transform="matrix(0.237159 -0.971471 0.978184 0.207742 59.5583 24.2654)" fill="#F1F9FF"/>
<ellipse cx="0.852512" cy="1.10946" rx="0.852512" ry="1.10946" transform="matrix(0.237159 -0.971471 0.978184 0.207742 70.5252 27.0051)" fill="#F1F9FF"/>
<ellipse cx="0.852512" cy="1.10946" rx="0.852512" ry="1.10946" transform="matrix(0.237159 -0.971471 0.978184 0.207742 51.3598 29.7687)" fill="#F1F9FF"/>
<ellipse cx="0.852512" cy="1.10946" rx="0.852512" ry="1.10946" transform="matrix(0.237159 -0.971471 0.978184 0.207742 55.0977 9.44354)" fill="#F1F9FF"/>
<ellipse cx="1.62257" cy="2.11162" rx="1.62257" ry="2.11162" transform="matrix(0.237159 -0.971471 0.978184 0.207742 56.0198 16.2053)" fill="#F1F9FF"/>
<ellipse cx="1.62257" cy="2.11162" rx="1.62257" ry="2.11162" transform="matrix(0.237159 -0.971471 0.978184 0.207742 39.8541 21.7316)" fill="#F1F9FF"/>
<ellipse cx="1.62257" cy="2.11162" rx="1.62257" ry="2.11162" transform="matrix(0.237159 -0.971471 0.978184 0.207742 53.9346 23.3834)" fill="#F1F9FF"/>
<ellipse cx="1.62257" cy="2.11162" rx="1.62257" ry="2.11162" transform="matrix(0.237159 -0.971471 0.978184 0.207742 63.6862 22.8694)" fill="#F1F9FF"/>
</svg>
